<svg xmlns="http://www.w3.org/2000/svg" width="111.75" height="15.406" viewBox="1508.25 17 111.75 15.406"><g data-name="Right"><g data-name="Follow"><path d="M1619 18h-12.031c-.532 0-.969.469-.969 1.031V31c0 .563.438 1 .969 1H1619c.531 0 1-.438 1-1V19.031c0-.562-.469-1.031-1-1.031Zm-8.781 12h-2.063v-6.656h2.063V30Zm-1.032-7.594c-.687 0-1.218-.531-1.218-1.187a1.22 1.22 0 0 1 1.218-1.219c.657 0 1.188.563 1.188 1.219 0 .656-.531 1.187-1.188 1.187ZM1618 30h-2.094v-3.25c0-.75 0-1.75-1.062-1.75-1.094 0-1.25.844-1.25 1.719V30h-2.063v-6.656h1.969v.906h.031c.282-.531.969-1.094 1.969-1.094 2.094 0 2.5 1.407 2.5 3.188V30Z" fill="#191919" fill-rule="evenodd" data-name=""/><path d="M1556.375 21.219A6.952 6.952 0 0 0 1558 19.53a6.151 6.151 0 0 1-1.875.5 3.206 3.206 0 0 0 1.437-1.812 6.93 6.93 0 0 1-2.062.812 3.282 3.282 0 0 0-2.406-1.031 3.28 3.28 0 0 0-3.282 3.281c0 .25.032.5.094.75a9.52 9.52 0 0 1-6.781-3.437 3.192 3.192 0 0 0-.438 1.656c0 1.125.563 2.125 1.47 2.719-.532-.032-1.063-.157-1.5-.407v.032a3.285 3.285 0 0 0 2.624 3.218c-.25.063-.562.125-.843.125-.22 0-.407-.03-.626-.062a3.265 3.265 0 0 0 3.063 2.281 6.597 6.597 0 0 1-4.063 1.407c-.28 0-.53-.032-.78-.063 1.437.938 3.156 1.469 5.03 1.469 6.032 0 9.313-4.969 9.313-9.313v-.437Z" fill="#191919" fill-rule="evenodd" data-name=""/><path d="M1523.75 24.75a7.74 7.74 0 0 1-6.563 7.656V27H1519l.344-2.25h-2.157v-1.438c0-.625.313-1.218 1.282-1.218h.968v-1.907s-.874-.156-1.75-.156c-1.75 0-2.906 1.094-2.906 3.032v1.687h-1.968V27h1.968v5.406c-3.718-.562-6.531-3.781-6.531-7.656A7.749 7.749 0 0 1 1516 17a7.749 7.749 0 0 1 7.75 7.75Z" fill="#191919" fill-rule="evenodd" data-name=""/><path d="M1582.016 21.39c-2 0-3.594 1.626-3.594 3.594 0 2 1.594 3.594 3.594 3.594a3.594 3.594 0 0 0 3.593-3.594c0-1.968-1.625-3.593-3.593-3.593Zm0 5.938a2.34 2.34 0 0 1-2.344-2.344c0-1.28 1.031-2.312 2.344-2.312a2.307 2.307 0 0 1 2.312 2.312c0 1.313-1.031 2.344-2.312 2.344Zm4.562-6.062a.84.84 0 0 0-.844-.844.84.84 0 0 0-.843.844.84.84 0 0 0 .843.843.84.84 0 0 0 .844-.843Zm2.375.843c-.062-1.125-.312-2.125-1.125-2.937-.812-.813-1.812-1.063-2.937-1.125-1.157-.063-4.625-.063-5.782 0-1.125.062-2.093.312-2.937 1.125-.813.812-1.063 1.812-1.125 2.937-.063 1.157-.063 4.625 0 5.782.062 1.125.312 2.093 1.125 2.937.844.813 1.812 1.063 2.937 1.125 1.157.063 4.625.063 5.782 0 1.125-.062 2.125-.312 2.937-1.125.813-.844 1.063-1.812 1.125-2.937.063-1.157.063-4.625 0-5.782Zm-1.5 7c-.219.625-.719 1.094-1.312 1.344-.938.375-3.125.281-4.125.281-1.032 0-3.22.094-4.125-.28a2.37 2.37 0 0 1-1.344-1.345c-.375-.906-.281-3.093-.281-4.125 0-1-.094-3.187.28-4.125a2.41 2.41 0 0 1 1.345-1.312c.906-.375 3.093-.281 4.125-.281 1 0 3.187-.094 4.125.28.593.22 1.062.72 1.312 1.313.375.938.281 3.125.281 4.125 0 1.032.094 3.22-.28 4.125Z" fill="#191919" fill-rule="evenodd" data-name=""/></g></g></svg>